<svg width="76" height="74" viewBox="0 0 76 74" fill="none" xmlns="http://www.w3.org/2000/svg">
<path d="M10.9141 13.3301C10.9844 13.1426 11.0195 12.9434 11.0195 12.7324C11.0195 12.3574 10.8672 12.0645 10.5625 11.8535C10.2695 11.6309 9.80078 11.5195 9.15625 11.5195C8.62891 11.5195 8.0957 11.6367 7.55664 11.8711C7.0293 12.0938 6.51953 12.4043 6.02734 12.8027C5.53516 13.2012 5.07227 13.6758 4.63867 14.2266C4.2168 14.7773 3.84766 15.375 3.53125 16.0195C3.22656 16.6641 2.98047 17.3496 2.79297 18.0762C2.61719 18.791 2.5293 19.5117 2.5293 20.2383C2.5293 20.8242 2.59375 21.3223 2.72266 21.7324C2.85156 22.1426 3.0332 22.4766 3.26758 22.7344C3.50195 22.9922 3.7832 23.1797 4.11133 23.2969C4.43945 23.4023 4.80859 23.4551 5.21875 23.4551C6.02734 23.4551 6.8125 23.2734 7.57422 22.9102C8.33594 22.5469 9.05664 22.0781 9.73633 21.5039C10.4277 20.918 11.0605 20.2676 11.6348 19.5527C12.2207 18.8379 12.7363 18.1348 13.1816 17.4434L13.832 17.9355C13.1992 19.002 12.5254 19.9395 11.8105 20.748C11.0957 21.5449 10.3633 22.2129 9.61328 22.752C8.86328 23.291 8.10156 23.6953 7.32812 23.9648C6.55469 24.2344 5.79883 24.3691 5.06055 24.3691C4.47461 24.3691 3.91211 24.2812 3.37305 24.1055C2.8457 23.9297 2.37695 23.666 1.9668 23.3145C1.56836 22.9512 1.24609 22.4883 1 21.9258C0.765625 21.3633 0.648438 20.6953 0.648438 19.9219C0.648438 19.0078 0.777344 18.1465 1.03516 17.3379C1.30469 16.5176 1.65625 15.7617 2.08984 15.0703C2.53516 14.3789 3.04492 13.7578 3.61914 13.207C4.19336 12.6445 4.79102 12.1699 5.41211 11.7832C6.04492 11.3965 6.67773 11.1035 7.31055 10.9043C7.95508 10.6934 8.55859 10.5879 9.12109 10.5879C9.69531 10.5879 10.1641 10.6699 10.5273 10.834C10.8906 10.9863 11.1777 11.1738 11.3887 11.3965C11.5996 11.6191 11.7402 11.8535 11.8105 12.0996C11.8926 12.3457 11.9336 12.5566 11.9336 12.7324C11.9336 13.0137 11.8926 13.3125 11.8105 13.6289C11.7285 13.9453 11.6113 14.2383 11.459 14.5078C11.3184 14.7656 11.1367 14.9824 10.9141 15.1582C10.7031 15.334 10.4688 15.4219 10.2109 15.4219C9.95312 15.4219 9.73047 15.3398 9.54297 15.1758C9.35547 15 9.26172 14.7832 9.26172 14.5254C9.26172 14.5137 9.26758 14.4434 9.2793 14.3145C9.30273 14.1855 9.36133 14.0508 9.45508 13.9102C9.54883 13.7578 9.68945 13.623 9.87695 13.5059C10.0762 13.3887 10.3516 13.3301 10.7031 13.3301H10.9141ZM23.1133 19.2188C23.1602 19.2305 23.207 19.2363 23.2539 19.2363C23.3008 19.2363 23.3535 19.2363 23.4121 19.2363C23.7402 19.2363 24.0391 19.207 24.3086 19.1484C24.5781 19.0781 24.8242 18.9727 25.0469 18.832C25.2812 18.6914 25.5039 18.5098 25.7148 18.2871C25.9258 18.0527 26.1309 17.7715 26.3301 17.4434L26.9629 17.9355C26.4004 18.7324 25.8203 19.2891 25.2227 19.6055C24.625 19.9219 23.9922 20.0801 23.3242 20.0801C23.0781 20.0801 22.8613 20.0566 22.6738 20.0098C22.1699 20.8535 21.6309 21.5742 21.0566 22.1719C20.4824 22.7578 19.8965 23.2383 19.2988 23.6133C18.7012 23.9883 18.1094 24.2578 17.5234 24.4219C16.9375 24.5977 16.3926 24.6855 15.8887 24.6855C15.373 24.6855 14.8926 24.5918 14.4473 24.4043C14.0137 24.2285 13.6387 23.9707 13.3223 23.6309C13.0059 23.291 12.7598 22.8867 12.584 22.418C12.4082 21.9492 12.3203 21.4219 12.3203 20.8359C12.3203 20.25 12.4141 19.6523 12.6016 19.043C12.7891 18.4336 13.041 17.8301 13.3574 17.2324C13.6855 16.6348 14.0664 16.0605 14.5 15.5098C14.9336 14.9473 15.4023 14.4258 15.9062 13.9453C16.4102 13.4648 16.9316 13.0312 17.4707 12.6445C18.0098 12.2578 18.5488 11.9414 19.0879 11.6953L19.6504 12.4336C19.0293 12.8789 18.3965 13.4414 17.752 14.1211C17.1191 14.8008 16.5391 15.5449 16.0117 16.3535C15.4961 17.1621 15.0684 18.0059 14.7285 18.8848C14.4004 19.752 14.2363 20.5957 14.2363 21.416C14.2363 22.1543 14.4004 22.7285 14.7285 23.1387C15.0566 23.5371 15.5547 23.7363 16.2227 23.7363C16.7383 23.7363 17.248 23.6309 17.752 23.4199C18.2559 23.209 18.748 22.9219 19.2285 22.5586C19.709 22.1953 20.1719 21.7676 20.6172 21.2754C21.0625 20.7715 21.4844 20.2383 21.8828 19.6758C21.543 19.4766 21.2441 19.2129 20.9863 18.8848C20.7285 18.5449 20.5117 18.1641 20.3359 17.7422C20.1602 17.3086 20.0254 16.8457 19.9316 16.3535C19.8496 15.8613 19.8086 15.3574 19.8086 14.8418C19.8086 14.3262 19.873 13.8398 20.002 13.3828C20.1309 12.9258 20.3066 12.5273 20.5293 12.1875C20.7637 11.8359 21.0332 11.5605 21.3379 11.3613C21.6426 11.1621 21.9766 11.0625 22.3398 11.0625C22.668 11.0625 22.9609 11.1504 23.2188 11.3262C23.4766 11.4902 23.6934 11.7246 23.8691 12.0293C24.0449 12.3223 24.1797 12.6738 24.2734 13.084C24.3672 13.4941 24.4141 13.9336 24.4141 14.4023C24.4141 14.7539 24.3848 15.1406 24.3262 15.5625C24.2676 15.9844 24.1797 16.4121 24.0625 16.8457C23.957 17.2676 23.8223 17.6895 23.6582 18.1113C23.5059 18.5215 23.3242 18.8906 23.1133 19.2188ZM20.7227 14.8418C20.7227 15.1816 20.752 15.5508 20.8105 15.9492C20.8691 16.3477 20.9629 16.7344 21.0918 17.1094C21.2207 17.4844 21.3848 17.8359 21.584 18.1641C21.7832 18.4805 22.0293 18.7324 22.3223 18.9199C22.5332 18.5098 22.709 18.0938 22.8496 17.6719C23.002 17.2383 23.125 16.8223 23.2188 16.4238C23.3242 16.0254 23.3945 15.6562 23.4297 15.3164C23.4766 14.9648 23.5 14.6602 23.5 14.4023C23.5 14.0508 23.4707 13.7285 23.4121 13.4355C23.3535 13.1426 23.2715 12.8906 23.166 12.6797C23.0723 12.457 22.9492 12.2871 22.7969 12.1699C22.6562 12.041 22.498 11.9766 22.3223 11.9766C22.0879 11.9766 21.8711 12.0586 21.6719 12.2227C21.4727 12.375 21.3027 12.5859 21.1621 12.8555C21.0215 13.1133 20.9102 13.418 20.8281 13.7695C20.7578 14.1094 20.7227 14.4668 20.7227 14.8418ZM45.9473 0.902344C45.8184 1.08984 45.6074 1.40039 45.3145 1.83398C45.0215 2.26758 44.6816 2.7832 44.2949 3.38086C43.9082 3.97852 43.4863 4.64063 43.0293 5.36719C42.584 6.09375 42.1328 6.84375 41.6758 7.61719C41.2305 8.39062 40.791 9.17578 40.3574 9.97266C39.9355 10.7578 39.5605 11.5137 39.2324 12.2402C38.7168 13.3652 38.2891 14.373 37.9492 15.2637C37.6211 16.1426 37.3574 16.9277 37.1582 17.6191C36.9707 18.3105 36.8359 18.9141 36.7539 19.4297C36.6836 19.9336 36.6484 20.3672 36.6484 20.7305C36.6484 21.3984 36.748 21.8613 36.9473 22.1191C37.1582 22.377 37.4395 22.5059 37.791 22.5059C38.1543 22.5059 38.5 22.4121 38.8281 22.2246C39.168 22.0371 39.4902 21.7969 39.7949 21.5039C40.1113 21.2109 40.4043 20.877 40.6738 20.502C40.9551 20.127 41.2129 19.752 41.4473 19.377C41.6934 19.002 41.916 18.6445 42.1152 18.3047C42.3145 17.9648 42.4902 17.6777 42.6426 17.4434L43.2754 17.9355C43.1465 18.1465 42.9824 18.4277 42.7832 18.7793C42.5957 19.1191 42.3789 19.4941 42.1328 19.9043C41.8867 20.3145 41.6055 20.7305 41.2891 21.1523C40.9727 21.5625 40.6211 21.9375 40.2344 22.2773C39.8594 22.6172 39.4375 22.8984 38.9688 23.1211C38.5117 23.332 38.0137 23.4375 37.4746 23.4375C37.2168 23.4375 36.9414 23.4023 36.6484 23.332C36.3672 23.2617 36.1035 23.1387 35.8574 22.9629C35.6113 22.7871 35.3945 22.5469 35.207 22.2422C35.0195 21.9258 34.8965 21.5273 34.8379 21.0469C33.959 21.9961 33.1035 22.7168 32.2715 23.209C31.4395 23.6895 30.6543 23.9297 29.916 23.9297C29.541 23.9297 29.125 23.8652 28.668 23.7363C28.2227 23.6074 27.8008 23.3848 27.4023 23.0684C27.0039 22.752 26.6699 22.3359 26.4004 21.8203C26.1309 21.293 25.9961 20.6426 25.9961 19.8691C25.9961 19.002 26.1309 18.1758 26.4004 17.3906C26.6699 16.6055 27.0332 15.8789 27.4902 15.2109C27.9473 14.5312 28.4688 13.9219 29.0547 13.3828C29.6523 12.832 30.2734 12.3691 30.918 11.9941C31.5625 11.6074 32.207 11.3086 32.8516 11.0977C33.5078 10.8867 34.123 10.7812 34.6973 10.7812C35.459 10.7812 36.0566 10.875 36.4902 11.0625C36.9238 11.25 37.252 11.4375 37.4746 11.625C37.6387 11.2969 37.8613 10.8809 38.1426 10.377C38.4238 9.86133 38.752 9.29297 39.127 8.67188C39.502 8.03906 39.918 7.37109 40.375 6.66797C40.832 5.95312 41.3184 5.23828 41.834 4.52344C42.3496 3.79688 42.8887 3.08203 43.4512 2.37891C44.0254 1.67578 44.6055 1.01953 45.1914 0.410156L45.9473 0.902344ZM34.8203 19.7285C34.8789 18.8613 35.0781 17.8418 35.418 16.6699C35.7695 15.4863 36.3027 14.127 37.0176 12.5918C36.8535 12.3457 36.6191 12.1582 36.3145 12.0293C36.0215 11.8887 35.6875 11.8184 35.3125 11.8184C34.7383 11.8184 34.1523 11.9355 33.5547 12.1699C32.9688 12.4043 32.4004 12.7207 31.8496 13.1191C31.3105 13.5176 30.8008 13.9922 30.3203 14.543C29.8398 15.082 29.418 15.6621 29.0547 16.2832C28.7031 16.9043 28.4219 17.5547 28.2109 18.2344C28.0117 18.9023 27.9121 19.5645 27.9121 20.2207C27.9121 21.0996 28.0938 21.7852 28.457 22.2773C28.832 22.7695 29.3301 23.0156 29.9512 23.0156C30.2441 23.0156 30.5664 22.957 30.918 22.8398C31.2695 22.7227 31.6504 22.5352 32.0605 22.2773C32.4824 22.0078 32.9219 21.668 33.3789 21.2578C33.8359 20.8359 34.3164 20.3262 34.8203 19.7285ZM43.9961 19.9922C43.9727 20.1328 43.9551 20.2734 43.9434 20.4141C43.9316 20.5547 43.9258 20.6953 43.9258 20.8359C43.9258 21.2578 43.9844 21.6621 44.1016 22.0488C44.2305 22.4238 44.4121 22.7578 44.6465 23.0508C44.8926 23.332 45.1914 23.5547 45.543 23.7188C45.9062 23.8828 46.3164 23.9648 46.7734 23.9648C48.3086 23.9648 49.791 23.4434 51.2207 22.4004C52.6504 21.3574 54.0742 19.7051 55.4922 17.4434L56.0898 17.9707C55.3164 19.2598 54.5312 20.3496 53.7344 21.2402C52.9375 22.1191 52.1406 22.834 51.3438 23.3848C50.5586 23.9355 49.7852 24.334 49.0234 24.5801C48.2617 24.8262 47.5352 24.9492 46.8438 24.9492C46.3398 24.9492 45.8066 24.8789 45.2441 24.7383C44.6816 24.5977 44.1602 24.3633 43.6797 24.0352C43.2109 23.707 42.8242 23.2676 42.5195 22.7168C42.2031 22.166 42.0449 21.4805 42.0449 20.6602C42.0449 19.7812 42.1973 18.9375 42.502 18.1289C42.7949 17.3086 43.1816 16.5469 43.6621 15.8438C44.1426 15.1406 44.6934 14.502 45.3145 13.9277C45.9355 13.3418 46.5625 12.8438 47.1953 12.4336C47.8398 12.0234 48.4668 11.707 49.0762 11.4844C49.6855 11.25 50.2246 11.1328 50.6934 11.1328C50.998 11.1328 51.3086 11.1797 51.625 11.2734C51.9414 11.3672 52.2227 11.5137 52.4688 11.7129C52.7266 11.9121 52.9316 12.1758 53.084 12.5039C53.248 12.832 53.3301 13.2246 53.3301 13.6816C53.3301 14.3027 53.1836 14.8887 52.8906 15.4395C52.6094 15.9785 52.2285 16.4824 51.748 16.9512C51.2676 17.4082 50.7109 17.8242 50.0781 18.1992C49.4453 18.5625 48.7832 18.873 48.0918 19.1309C47.4004 19.3887 46.7031 19.5938 46 19.7461C45.2969 19.8984 44.6289 19.9805 43.9961 19.9922ZM44.1367 19.2363C44.9219 19.1543 45.6602 18.9902 46.3516 18.7441C47.043 18.498 47.6758 18.1992 48.25 17.8477C48.8242 17.4844 49.334 17.0918 49.7793 16.6699C50.2363 16.248 50.6172 15.8203 50.9219 15.3867C51.2266 14.9531 51.4609 14.5371 51.625 14.1387C51.7891 13.7402 51.8711 13.3828 51.8711 13.0664C51.8711 12.75 51.7832 12.498 51.6074 12.3105C51.4434 12.123 51.2441 12.0293 51.0098 12.0293C50.4941 12.0293 49.9141 12.2168 49.2695 12.5918C48.625 12.9551 47.9805 13.4648 47.3359 14.1211C46.6914 14.7656 46.082 15.5273 45.5078 16.4062C44.9453 17.2852 44.4883 18.2285 44.1367 19.2363ZM75.0918 0.902344C74.9629 1.08984 74.752 1.40039 74.459 1.83398C74.166 2.26758 73.8262 2.7832 73.4395 3.38086C73.0527 3.97852 72.6309 4.64063 72.1738 5.36719C71.7285 6.09375 71.2773 6.84375 70.8203 7.61719C70.375 8.39062 69.9355 9.17578 69.502 9.97266C69.0801 10.7578 68.7051 11.5137 68.377 12.2402C67.8613 13.3652 67.4336 14.373 67.0938 15.2637C66.7656 16.1426 66.502 16.9277 66.3027 17.6191C66.1152 18.3105 65.9805 18.9141 65.8984 19.4297C65.8281 19.9336 65.793 20.3672 65.793 20.7305C65.793 21.3984 65.8926 21.8613 66.0918 22.1191C66.3027 22.377 66.584 22.5059 66.9355 22.5059C67.2988 22.5059 67.6445 22.4121 67.9727 22.2246C68.3125 22.0371 68.6348 21.7969 68.9395 21.5039C69.2559 21.2109 69.5488 20.877 69.8184 20.502C70.0996 20.127 70.3574 19.752 70.5918 19.377C70.8379 19.002 71.0605 18.6445 71.2598 18.3047C71.459 17.9648 71.6348 17.6777 71.7871 17.4434L72.4199 17.9355C72.291 18.1465 72.127 18.4277 71.9277 18.7793C71.7402 19.1191 71.5234 19.4941 71.2773 19.9043C71.0312 20.3145 70.75 20.7305 70.4336 21.1523C70.1172 21.5625 69.7656 21.9375 69.3789 22.2773C69.0039 22.6172 68.582 22.8984 68.1133 23.1211C67.6562 23.332 67.1582 23.4375 66.6191 23.4375C66.3613 23.4375 66.0859 23.4023 65.793 23.332C65.5117 23.2617 65.248 23.1387 65.002 22.9629C64.7559 22.7871 64.5391 22.5469 64.3516 22.2422C64.1641 21.9258 64.041 21.5273 63.9824 21.0469C63.1035 21.9961 62.248 22.7168 61.416 23.209C60.584 23.6895 59.7988 23.9297 59.0605 23.9297C58.6855 23.9297 58.2695 23.8652 57.8125 23.7363C57.3672 23.6074 56.9453 23.3848 56.5469 23.0684C56.1484 22.752 55.8145 22.3359 55.5449 21.8203C55.2754 21.293 55.1406 20.6426 55.1406 19.8691C55.1406 19.002 55.2754 18.1758 55.5449 17.3906C55.8145 16.6055 56.1777 15.8789 56.6348 15.2109C57.0918 14.5312 57.6133 13.9219 58.1992 13.3828C58.7969 12.832 59.418 12.3691 60.0625 11.9941C60.707 11.6074 61.3516 11.3086 61.9961 11.0977C62.6523 10.8867 63.2676 10.7812 63.8418 10.7812C64.6035 10.7812 65.2012 10.875 65.6348 11.0625C66.0684 11.25 66.3965 11.4375 66.6191 11.625C66.7832 11.2969 67.0059 10.8809 67.2871 10.377C67.5684 9.86133 67.8965 9.29297 68.2715 8.67188C68.6465 8.03906 69.0625 7.37109 69.5195 6.66797C69.9766 5.95312 70.4629 5.23828 70.9785 4.52344C71.4941 3.79688 72.0332 3.08203 72.5957 2.37891C73.1699 1.67578 73.75 1.01953 74.3359 0.410156L75.0918 0.902344ZM63.9648 19.7285C64.0234 18.8613 64.2227 17.8418 64.5625 16.6699C64.9141 15.4863 65.4473 14.127 66.1621 12.5918C65.998 12.3457 65.7637 12.1582 65.459 12.0293C65.166 11.8887 64.832 11.8184 64.457 11.8184C63.8828 11.8184 63.2969 11.9355 62.6992 12.1699C62.1133 12.4043 61.5449 12.7207 60.9941 13.1191C60.4551 13.5176 59.9453 13.9922 59.4648 14.543C58.9844 15.082 58.5625 15.6621 58.1992 16.2832C57.8477 16.9043 57.5664 17.5547 57.3555 18.2344C57.1562 18.9023 57.0566 19.5645 57.0566 20.2207C57.0566 21.0996 57.2383 21.7852 57.6016 22.2773C57.9766 22.7695 58.4746 23.0156 59.0957 23.0156C59.3887 23.0156 59.7109 22.957 60.0625 22.8398C60.4141 22.7227 60.7949 22.5352 61.2051 22.2773C61.627 22.0078 62.0664 21.668 62.5234 21.2578C62.9805 20.8359 63.4609 20.3262 63.9648 19.7285ZM10.9141 62.3301C10.9844 62.1426 11.0195 61.9434 11.0195 61.7324C11.0195 61.3574 10.8672 61.0645 10.5625 60.8535C10.2695 60.6309 9.80078 60.5195 9.15625 60.5195C8.62891 60.5195 8.0957 60.6367 7.55664 60.8711C7.0293 61.0938 6.51953 61.4043 6.02734 61.8027C5.53516 62.2012 5.07227 62.6758 4.63867 63.2266C4.2168 63.7773 3.84766 64.375 3.53125 65.0195C3.22656 65.6641 2.98047 66.3496 2.79297 67.0762C2.61719 67.791 2.5293 68.5117 2.5293 69.2383C2.5293 69.8242 2.59375 70.3223 2.72266 70.7324C2.85156 71.1426 3.0332 71.4766 3.26758 71.7344C3.50195 71.9922 3.7832 72.1797 4.11133 72.2969C4.43945 72.4023 4.80859 72.4551 5.21875 72.4551C6.02734 72.4551 6.8125 72.2734 7.57422 71.9102C8.33594 71.5469 9.05664 71.0781 9.73633 70.5039C10.4277 69.918 11.0605 69.2676 11.6348 68.5527C12.2207 67.8379 12.7363 67.1348 13.1816 66.4434L13.832 66.9355C13.1992 68.002 12.5254 68.9395 11.8105 69.748C11.0957 70.5449 10.3633 71.2129 9.61328 71.752C8.86328 72.291 8.10156 72.6953 7.32812 72.9648C6.55469 73.2344 5.79883 73.3691 5.06055 73.3691C4.47461 73.3691 3.91211 73.2812 3.37305 73.1055C2.8457 72.9297 2.37695 72.666 1.9668 72.3145C1.56836 71.9512 1.24609 71.4883 1 70.9258C0.765625 70.3633 0.648438 69.6953 0.648438 68.9219C0.648438 68.0078 0.777344 67.1465 1.03516 66.3379C1.30469 65.5176 1.65625 64.7617 2.08984 64.0703C2.53516 63.3789 3.04492 62.7578 3.61914 62.207C4.19336 61.6445 4.79102 61.1699 5.41211 60.7832C6.04492 60.3965 6.67773 60.1035 7.31055 59.9043C7.95508 59.6934 8.55859 59.5879 9.12109 59.5879C9.69531 59.5879 10.1641 59.6699 10.5273 59.834C10.8906 59.9863 11.1777 60.1738 11.3887 60.3965C11.5996 60.6191 11.7402 60.8535 11.8105 61.0996C11.8926 61.3457 11.9336 61.5566 11.9336 61.7324C11.9336 62.0137 11.8926 62.3125 11.8105 62.6289C11.7285 62.9453 11.6113 63.2383 11.459 63.5078C11.3184 63.7656 11.1367 63.9824 10.9141 64.1582C10.7031 64.334 10.4688 64.4219 10.2109 64.4219C9.95312 64.4219 9.73047 64.3398 9.54297 64.1758C9.35547 64 9.26172 63.7832 9.26172 63.5254C9.26172 63.5137 9.26758 63.4434 9.2793 63.3145C9.30273 63.1855 9.36133 63.0508 9.45508 62.9102C9.54883 62.7578 9.68945 62.623 9.87695 62.5059C10.0762 62.3887 10.3516 62.3301 10.7031 62.3301H10.9141ZM23.1133 68.2188C23.1602 68.2305 23.207 68.2363 23.2539 68.2363C23.3008 68.2363 23.3535 68.2363 23.4121 68.2363C23.7402 68.2363 24.0391 68.207 24.3086 68.1484C24.5781 68.0781 24.8242 67.9727 25.0469 67.832C25.2812 67.6914 25.5039 67.5098 25.7148 67.2871C25.9258 67.0527 26.1309 66.7715 26.3301 66.4434L26.9629 66.9355C26.4004 67.7324 25.8203 68.2891 25.2227 68.6055C24.625 68.9219 23.9922 69.0801 23.3242 69.0801C23.0781 69.0801 22.8613 69.0566 22.6738 69.0098C22.1699 69.8535 21.6309 70.5742 21.0566 71.1719C20.4824 71.7578 19.8965 72.2383 19.2988 72.6133C18.7012 72.9883 18.1094 73.2578 17.5234 73.4219C16.9375 73.5977 16.3926 73.6855 15.8887 73.6855C15.373 73.6855 14.8926 73.5918 14.4473 73.4043C14.0137 73.2285 13.6387 72.9707 13.3223 72.6309C13.0059 72.291 12.7598 71.8867 12.584 71.418C12.4082 70.9492 12.3203 70.4219 12.3203 69.8359C12.3203 69.25 12.4141 68.6523 12.6016 68.043C12.7891 67.4336 13.041 66.8301 13.3574 66.2324C13.6855 65.6348 14.0664 65.0605 14.5 64.5098C14.9336 63.9473 15.4023 63.4258 15.9062 62.9453C16.4102 62.4648 16.9316 62.0312 17.4707 61.6445C18.0098 61.2578 18.5488 60.9414 19.0879 60.6953L19.6504 61.4336C19.0293 61.8789 18.3965 62.4414 17.752 63.1211C17.1191 63.8008 16.5391 64.5449 16.0117 65.3535C15.4961 66.1621 15.0684 67.0059 14.7285 67.8848C14.4004 68.752 14.2363 69.5957 14.2363 70.416C14.2363 71.1543 14.4004 71.7285 14.7285 72.1387C15.0566 72.5371 15.5547 72.7363 16.2227 72.7363C16.7383 72.7363 17.248 72.6309 17.752 72.4199C18.2559 72.209 18.748 71.9219 19.2285 71.5586C19.709 71.1953 20.1719 70.7676 20.6172 70.2754C21.0625 69.7715 21.4844 69.2383 21.8828 68.6758C21.543 68.4766 21.2441 68.2129 20.9863 67.8848C20.7285 67.5449 20.5117 67.1641 20.3359 66.7422C20.1602 66.3086 20.0254 65.8457 19.9316 65.3535C19.8496 64.8613 19.8086 64.3574 19.8086 63.8418C19.8086 63.3262 19.873 62.8398 20.002 62.3828C20.1309 61.9258 20.3066 61.5273 20.5293 61.1875C20.7637 60.8359 21.0332 60.5605 21.3379 60.3613C21.6426 60.1621 21.9766 60.0625 22.3398 60.0625C22.668 60.0625 22.9609 60.1504 23.2188 60.3262C23.4766 60.4902 23.6934 60.7246 23.8691 61.0293C24.0449 61.3223 24.1797 61.6738 24.2734 62.084C24.3672 62.4941 24.4141 62.9336 24.4141 63.4023C24.4141 63.7539 24.3848 64.1406 24.3262 64.5625C24.2676 64.9844 24.1797 65.4121 24.0625 65.8457C23.957 66.2676 23.8223 66.6895 23.6582 67.1113C23.5059 67.5215 23.3242 67.8906 23.1133 68.2188ZM20.7227 63.8418C20.7227 64.1816 20.752 64.5508 20.8105 64.9492C20.8691 65.3477 20.9629 65.7344 21.0918 66.1094C21.2207 66.4844 21.3848 66.8359 21.584 67.1641C21.7832 67.4805 22.0293 67.7324 22.3223 67.9199C22.5332 67.5098 22.709 67.0938 22.8496 66.6719C23.002 66.2383 23.125 65.8223 23.2188 65.4238C23.3242 65.0254 23.3945 64.6562 23.4297 64.3164C23.4766 63.9648 23.5 63.6602 23.5 63.4023C23.5 63.0508 23.4707 62.7285 23.4121 62.4355C23.3535 62.1426 23.2715 61.8906 23.166 61.6797C23.0723 61.457 22.9492 61.2871 22.7969 61.1699C22.6562 61.041 22.498 60.9766 22.3223 60.9766C22.0879 60.9766 21.8711 61.0586 21.6719 61.2227C21.4727 61.375 21.3027 61.5859 21.1621 61.8555C21.0215 62.1133 20.9102 62.418 20.8281 62.7695C20.7578 63.1094 20.7227 63.4668 20.7227 63.8418ZM45.9473 49.9023C45.8184 50.0898 45.6074 50.4004 45.3145 50.834C45.0215 51.2676 44.6816 51.7832 44.2949 52.3809C43.9082 52.9785 43.4863 53.6406 43.0293 54.3672C42.584 55.0938 42.1328 55.8438 41.6758 56.6172C41.2305 57.3906 40.791 58.1758 40.3574 58.9727C39.9355 59.7578 39.5605 60.5137 39.2324 61.2402C38.7168 62.3652 38.2891 63.373 37.9492 64.2637C37.6211 65.1426 37.3574 65.9277 37.1582 66.6191C36.9707 67.3105 36.8359 67.9141 36.7539 68.4297C36.6836 68.9336 36.6484 69.3672 36.6484 69.7305C36.6484 70.3984 36.748 70.8613 36.9473 71.1191C37.1582 71.377 37.4395 71.5059 37.791 71.5059C38.1543 71.5059 38.5 71.4121 38.8281 71.2246C39.168 71.0371 39.4902 70.7969 39.7949 70.5039C40.1113 70.2109 40.4043 69.877 40.6738 69.502C40.9551 69.127 41.2129 68.752 41.4473 68.377C41.6934 68.002 41.916 67.6445 42.1152 67.3047C42.3145 66.9648 42.4902 66.6777 42.6426 66.4434L43.2754 66.9355C43.1465 67.1465 42.9824 67.4277 42.7832 67.7793C42.5957 68.1191 42.3789 68.4941 42.1328 68.9043C41.8867 69.3145 41.6055 69.7305 41.2891 70.1523C40.9727 70.5625 40.6211 70.9375 40.2344 71.2773C39.8594 71.6172 39.4375 71.8984 38.9688 72.1211C38.5117 72.332 38.0137 72.4375 37.4746 72.4375C37.2168 72.4375 36.9414 72.4023 36.6484 72.332C36.3672 72.2617 36.1035 72.1387 35.8574 71.9629C35.6113 71.7871 35.3945 71.5469 35.207 71.2422C35.0195 70.9258 34.8965 70.5273 34.8379 70.0469C33.959 70.9961 33.1035 71.7168 32.2715 72.209C31.4395 72.6895 30.6543 72.9297 29.916 72.9297C29.541 72.9297 29.125 72.8652 28.668 72.7363C28.2227 72.6074 27.8008 72.3848 27.4023 72.0684C27.0039 71.752 26.6699 71.3359 26.4004 70.8203C26.1309 70.293 25.9961 69.6426 25.9961 68.8691C25.9961 68.002 26.1309 67.1758 26.4004 66.3906C26.6699 65.6055 27.0332 64.8789 27.4902 64.2109C27.9473 63.5312 28.4688 62.9219 29.0547 62.3828C29.6523 61.832 30.2734 61.3691 30.918 60.9941C31.5625 60.6074 32.207 60.3086 32.8516 60.0977C33.5078 59.8867 34.123 59.7812 34.6973 59.7812C35.459 59.7812 36.0566 59.875 36.4902 60.0625C36.9238 60.25 37.252 60.4375 37.4746 60.625C37.6387 60.2969 37.8613 59.8809 38.1426 59.377C38.4238 58.8613 38.752 58.293 39.127 57.6719C39.502 57.0391 39.918 56.3711 40.375 55.668C40.832 54.9531 41.3184 54.2383 41.834 53.5234C42.3496 52.7969 42.8887 52.082 43.4512 51.3789C44.0254 50.6758 44.6055 50.0195 45.1914 49.4102L45.9473 49.9023ZM34.8203 68.7285C34.8789 67.8613 35.0781 66.8418 35.418 65.6699C35.7695 64.4863 36.3027 63.127 37.0176 61.5918C36.8535 61.3457 36.6191 61.1582 36.3145 61.0293C36.0215 60.8887 35.6875 60.8184 35.3125 60.8184C34.7383 60.8184 34.1523 60.9355 33.5547 61.1699C32.9688 61.4043 32.4004 61.7207 31.8496 62.1191C31.3105 62.5176 30.8008 62.9922 30.3203 63.543C29.8398 64.082 29.418 64.6621 29.0547 65.2832C28.7031 65.9043 28.4219 66.5547 28.2109 67.2344C28.0117 67.9023 27.9121 68.5645 27.9121 69.2207C27.9121 70.0996 28.0938 70.7852 28.457 71.2773C28.832 71.7695 29.3301 72.0156 29.9512 72.0156C30.2441 72.0156 30.5664 71.957 30.918 71.8398C31.2695 71.7227 31.6504 71.5352 32.0605 71.2773C32.4824 71.0078 32.9219 70.668 33.3789 70.2578C33.8359 69.8359 34.3164 69.3262 34.8203 68.7285ZM43.9961 68.9922C43.9727 69.1328 43.9551 69.2734 43.9434 69.4141C43.9316 69.5547 43.9258 69.6953 43.9258 69.8359C43.9258 70.2578 43.9844 70.6621 44.1016 71.0488C44.2305 71.4238 44.4121 71.7578 44.6465 72.0508C44.8926 72.332 45.1914 72.5547 45.543 72.7188C45.9062 72.8828 46.3164 72.9648 46.7734 72.9648C48.3086 72.9648 49.791 72.4434 51.2207 71.4004C52.6504 70.3574 54.0742 68.7051 55.4922 66.4434L56.0898 66.9707C55.3164 68.2598 54.5312 69.3496 53.7344 70.2402C52.9375 71.1191 52.1406 71.834 51.3438 72.3848C50.5586 72.9355 49.7852 73.334 49.0234 73.5801C48.2617 73.8262 47.5352 73.9492 46.8438 73.9492C46.3398 73.9492 45.8066 73.8789 45.2441 73.7383C44.6816 73.5977 44.1602 73.3633 43.6797 73.0352C43.2109 72.707 42.8242 72.2676 42.5195 71.7168C42.2031 71.166 42.0449 70.4805 42.0449 69.6602C42.0449 68.7812 42.1973 67.9375 42.502 67.1289C42.7949 66.3086 43.1816 65.5469 43.6621 64.8438C44.1426 64.1406 44.6934 63.502 45.3145 62.9277C45.9355 62.3418 46.5625 61.8438 47.1953 61.4336C47.8398 61.0234 48.4668 60.707 49.0762 60.4844C49.6855 60.25 50.2246 60.1328 50.6934 60.1328C50.998 60.1328 51.3086 60.1797 51.625 60.2734C51.9414 60.3672 52.2227 60.5137 52.4688 60.7129C52.7266 60.9121 52.9316 61.1758 53.084 61.5039C53.248 61.832 53.3301 62.2246 53.3301 62.6816C53.3301 63.3027 53.1836 63.8887 52.8906 64.4395C52.6094 64.9785 52.2285 65.4824 51.748 65.9512C51.2676 66.4082 50.7109 66.8242 50.0781 67.1992C49.4453 67.5625 48.7832 67.873 48.0918 68.1309C47.4004 68.3887 46.7031 68.5938 46 68.7461C45.2969 68.8984 44.6289 68.9805 43.9961 68.9922ZM44.1367 68.2363C44.9219 68.1543 45.6602 67.9902 46.3516 67.7441C47.043 67.498 47.6758 67.1992 48.25 66.8477C48.8242 66.4844 49.334 66.0918 49.7793 65.6699C50.2363 65.248 50.6172 64.8203 50.9219 64.3867C51.2266 63.9531 51.4609 63.5371 51.625 63.1387C51.7891 62.7402 51.8711 62.3828 51.8711 62.0664C51.8711 61.75 51.7832 61.498 51.6074 61.3105C51.4434 61.123 51.2441 61.0293 51.0098 61.0293C50.4941 61.0293 49.9141 61.2168 49.2695 61.5918C48.625 61.9551 47.9805 62.4648 47.3359 63.1211C46.6914 63.7656 46.082 64.5273 45.5078 65.4062C44.9453 66.2852 44.4883 67.2285 44.1367 68.2363ZM66.584 66.9355C66.4082 67.1934 66.1973 67.5449 65.9512 67.9902C65.7168 68.4238 65.4414 68.8984 65.125 69.4141C64.8086 69.918 64.457 70.4336 64.0703 70.9609C63.6953 71.4883 63.2793 71.9629 62.8223 72.3848C62.377 72.8066 61.8906 73.1523 61.3633 73.4219C60.8359 73.6914 60.2734 73.8262 59.6758 73.8262C59.3477 73.8262 59.0371 73.7734 58.7441 73.668C58.4512 73.5742 58.1934 73.4219 57.9707 73.2109C57.748 73 57.5723 72.7422 57.4434 72.4375C57.3145 72.1211 57.25 71.752 57.25 71.3301C57.25 70.7559 57.3613 70.1582 57.584 69.5371C57.8184 68.9043 58.0879 68.2949 58.3926 67.709C58.6973 67.123 59.002 66.5898 59.3066 66.1094C59.6113 65.6172 59.834 65.2246 59.9746 64.9316C60.1152 64.6387 60.1855 64.3867 60.1855 64.1758C60.1855 64.0234 60.1328 63.8887 60.0273 63.7715C59.9336 63.6543 59.8105 63.543 59.6582 63.4375C59.5176 63.3203 59.3652 63.2031 59.2012 63.0859C59.0488 62.957 58.9199 62.8047 58.8145 62.6289C58.5215 63.0977 58.2227 63.5723 57.918 64.0527C57.6484 64.4629 57.3555 64.9258 57.0391 65.4414C56.7227 65.9453 56.418 66.4434 56.125 66.9355L55.4922 66.4434L59.2539 60.5547L59.7637 60.8184C59.7402 60.8887 59.6992 61 59.6406 61.1523C59.5938 61.3047 59.5703 61.4688 59.5703 61.6445C59.5703 61.7734 59.5879 61.9023 59.623 62.0312C59.6699 62.1484 59.7578 62.2598 59.8867 62.3652C60.3555 62.7871 60.7246 63.1152 60.9941 63.3496C61.2637 63.5723 61.457 63.7539 61.5742 63.8945C61.7031 64.0234 61.7793 64.1348 61.8027 64.2285C61.8379 64.3105 61.8555 64.4219 61.8555 64.5625C61.8555 64.7031 61.832 64.873 61.7852 65.0723C61.7383 65.2715 61.6562 65.5117 61.5391 65.793C61.4336 66.0742 61.2812 66.4082 61.082 66.7949C60.8945 67.1699 60.6543 67.6094 60.3613 68.1133C60.1855 68.418 60.0098 68.7285 59.834 69.0449C59.6699 69.3496 59.5176 69.6602 59.377 69.9766C59.248 70.293 59.1426 70.6094 59.0605 70.9258C58.9785 71.2422 58.9375 71.5469 58.9375 71.8398C58.9375 72.0625 58.9668 72.2441 59.0254 72.3848C59.0957 72.5137 59.1836 72.6133 59.2891 72.6836C59.3945 72.7539 59.5059 72.8008 59.623 72.8242C59.752 72.8477 59.875 72.8594 59.9922 72.8594C60.3789 72.8594 60.7598 72.748 61.1348 72.5254C61.5215 72.291 61.8965 71.9922 62.2598 71.6289C62.6348 71.2656 62.9922 70.8555 63.332 70.3984C63.6836 69.9297 64.0176 69.4551 64.334 68.9746C64.6504 68.4941 64.9434 68.0371 65.2129 67.6035C65.4824 67.1582 65.7227 66.7715 65.9336 66.4434L66.584 66.9355Z" fill="white"/>
</svg>
